# xmcd CD database file
#
# Track frame offsets:
#	150
#	24788
#	46817
#	72375
#	99517
#	126808
#	154417
#	182716
#	212294
#	238003
#	272428
#
# Disc length: 4006 seconds
#
# Revision: 0
# Processed by: cddbd v1.5.2PL0 Copyright (c) Steve Scherf et al.
# Submitted via: CDex 1.70beta2
#
DISCID=8b0fa40b
DTITLE=Amy Macdonald - This is the Life
DYEAR=2007
DGENRE=Country
TTITLE0=Mr Rock and Roll
TTITLE1=This is the Life
TTITLE2=Poison Prince
TTITLE3=Youth of Today
TTITLE4=Run
TTITLE5=Let's start a Band
TTITLE6=Barrowland Ballroom
TTITLE7=L.A.
TTITLE8=A wish for something more
TTITLE9=Footballer's Wife
TTITLE10=The Road to Home
EXTD=YEAR: 2007
EXTT0=
EXTT1=
EXTT2=
EXTT3=
EXTT4=
EXTT5=
EXTT6=
EXTT7=
EXTT8=
EXTT9=
EXTT10=
PLAYORDER=
